# xmcd
#
# Track frame offsets:
#	150
#	22370
#	45585
#	70602
#	88787
#	109427
#	139575
#	164617
#	195702
#	224150
#	243247
#	276130
#
# Disc length: 4099 seconds
#
# Revision: 0
# Processed by: cddbd v1.4PL0 Copyright (c) Steve Scherf et al.
# Submitted via: dBpowerAMP V4.0
#
DISCID=ba10010c
DTITLE=Andy J. Forest - Live At The Rainbow
DYEAR=1998
DGENRE=Blues
TTITLE0=Drinkin' Beer
TTITLE1=I Do Believe
TTITLE2=Capable
TTITLE3=Electra 225
TTITLE4=Night Train
TTITLE5=Long Ago
TTITLE6=Never Been To Chicago
TTITLE7=Who Put The Girls On Me?
TTITLE8=Crazy Legs
TTITLE9=Motel Blue Orleans
TTITLE10=Louisiana
TTITLE11=Want You To Feel Good Too
EXTD=
EXTT0=
EXTT1=
EXTT2=
EXTT3=
EXTT4=
EXTT5=
EXTT6=
EXTT7=
EXTT8=
EXTT9=
EXTT10=
EXTT11=
PLAYORDER=
